<?xml version="1.0" encoding="UTF-8"?>
<svg width="782px" height="782px" viewBox="0 0 782 782" version="1.1" xmlns="http://www.w3.org/2000/svg" xmlns:xlink="http://www.w3.org/1999/xlink">
    <title>safari-pinned-tab</title>
    <g id="safari-pinned-tab" stroke="none" stroke-width="1" fill="none" fill-rule="evenodd">
        <path d="M687.696474,751 C706.876852,751 723.593085,746.733333 737.845171,738.2 C752.097258,729.666667 763.019417,718.266667 770.61165,704 C778.203883,689.733333 782,673.933333 782,656.6 C782,648.6 781.001022,640.733333 779.003066,633 C777.00511,625.266667 773.874979,617.666667 769.612672,610.2 L472.316811,79 C463.525805,63 451.804463,51 437.152785,43 C422.501107,35 407.183444,31 391.199796,31 C375.216147,31 359.831886,35 345.047011,43 C330.262136,51 318.474195,63 309.683189,79 L12.7869188,610.6 C4.26230625,625.8 0,641.133333 0,656.6 C0,673.933333 3.86271504,689.733333 11.5881451,704 C19.3135752,718.266667 30.235735,729.666667 44.3546244,738.2 C58.4735139,746.733333 75.1231477,751 94.3035258,751 L687.696474,751 Z M392.2,602 C372.733333,602 355.066667,597.405743 339.2,588.217228 C323.333333,579.028714 310.666667,566.644195 301.2,551.06367 C291.733333,535.483146 287,518.104869 287,498.928839 C287,482.416146 290.333333,466.369538 297,450.789014 C303.666667,435.208489 311,420.094049 319,405.445693 L382.2,288.791511 C384.866667,284.263837 388.2,282 392.2,282 C396.466667,282 399.8,284.263837 402.2,288.791511 L465,405.445693 C473,420.094049 480.333333,435.208489 487,450.789014 C493.666667,466.369538 497,482.416146 497,498.928839 C497,518.104869 492.266667,535.483146 482.8,551.06367 C473.333333,566.644195 460.666667,579.028714 444.8,588.217228 C428.933333,597.405743 411.4,602 392.2,602 Z" id="ô€ˆ" fill="#000000" fill-rule="nonzero" transform="translate(391.000000, 391.000000) scale(1, -1) translate(-391.000000, -391.000000) "></path>
    </g>
</svg>